<svg width="480" height="480" viewBox="0 0 480 480" fill="none" xmlns="http://www.w3.org/2000/svg">
<g clip-path="url(#clip0_374_511)">
<rect width="480" height="480" fill="white"/>
<path fill-rule="evenodd" clip-rule="evenodd" d="M137.294 126.089L190.989 95.9411V156.952L137.294 126.089ZM206.989 82.6784V166.149L318.55 230.273L392.938 187.828C398.429 184.695 405.256 188.66 405.256 194.982V284.331C405.256 290.664 398.406 294.628 392.915 291.471L318.521 248.71L206.989 312.349V397.173C206.989 403.486 200.18 407.453 194.688 404.337L116.422 359.93C110.868 356.778 110.858 348.778 116.405 345.613L190.989 303.057V175.407L117.472 133.15C111.931 129.965 111.972 121.957 117.545 118.828L194.721 75.4967C200.211 72.4141 206.989 76.382 206.989 82.6784ZM206.989 293.927V184.603L302.438 239.466L206.989 293.927ZM389.256 270.913L334.633 239.517L389.256 208.35V270.913ZM136.186 352.748L190.989 321.478V383.842L136.186 352.748ZM287.604 156.566V96.0718L340.771 126.504L287.604 156.566ZM283.931 75.5342C278.441 72.3913 271.604 76.3556 271.604 82.6823V169.874C271.604 176.181 278.403 180.148 283.894 177.044L360.525 133.715C366.085 130.572 366.106 122.57 360.563 119.398L283.931 75.5342ZM287.604 322.291V382.785L340.771 352.723L287.604 322.291ZM271.604 308.901C271.604 302.575 278.441 298.61 283.931 301.753L360.563 345.617C366.106 348.79 366.085 356.791 360.525 359.934L283.894 403.263C278.403 406.367 271.604 402.401 271.604 396.093V308.901ZM90.4268 270.485V209.991L143.594 240.423L90.4268 270.485ZM86.7546 189.453C81.2638 186.31 74.4268 190.274 74.4268 196.601V283.793C74.4268 290.1 81.2261 294.067 86.7168 290.963L163.349 247.634C168.908 244.491 168.93 236.489 163.386 233.316L86.7546 189.453Z" fill="#252E3F"/>
</g>
<defs>
<clipPath id="clip0_374_511">
<rect width="480" height="480" fill="white"/>
</clipPath>
</defs>
</svg>
